<svg xmlns="http://www.w3.org/2000/svg" width="234" height="46" fill="none"><g fill="#E1FD2C" clip-path="url(#a)"><path d="M87.467 6.321A21.224 21.224 0 0 0 77.579.697a22.195 22.195 0 0 0-11.394.109A22.604 22.604 0 0 0 56.022 6.75l-1.617 1.607a22.623 22.623 0 0 0-6.052 10.15 21.439 21.439 0 0 0-.128 11.293 21.928 21.928 0 0 0 5.72 9.823 22.17 22.17 0 0 0 9.896 5.68c3.742.974 7.678.936 11.401-.109A22.86 22.86 0 0 0 85.47 39.19l1.617-1.607a22.379 22.379 0 0 0 5.99-10.09 21.702 21.702 0 0 0 .11-11.309 21.122 21.122 0 0 0-5.72-9.862ZM86.124 21.57a32.607 32.607 0 0 1-6.157 8.27l-2.3 2.284a33.029 33.029 0 0 1-8.35 6.132 19.591 19.591 0 0 1-8.248 2.348 7.344 7.344 0 0 1-3.243-.352 7.3 7.3 0 0 1-2.764-1.72 7.232 7.232 0 0 1-1.733-2.743 7.187 7.187 0 0 1-.354-3.219c.166-2.87.973-5.666 2.364-8.186a32.842 32.842 0 0 1 6.18-8.289l2.3-2.283a32.773 32.773 0 0 1 8.327-6.114 19.634 19.634 0 0 1 8.222-2.325 7.346 7.346 0 0 1 3.245.351 7.302 7.302 0 0 1 2.765 1.72 7.233 7.233 0 0 1 1.733 2.745 7.19 7.19 0 0 1 .353 3.22 19.282 19.282 0 0 1-2.34 8.156v.005ZM137.302 6.321a21.223 21.223 0 0 0-9.887-5.624 22.196 22.196 0 0 0-11.394.109 22.602 22.602 0 0 0-10.163 5.944l-1.617 1.607a22.61 22.61 0 0 0-6.051 10.15 21.45 21.45 0 0 0-.13 11.293 21.939 21.939 0 0 0 5.723 9.823 22.18 22.18 0 0 0 9.896 5.68c3.74.973 7.673.935 11.394-.109A22.862 22.862 0 0 0 135.3 39.19l1.619-1.607a22.37 22.37 0 0 0 5.986-10.09 21.693 21.693 0 0 0 .11-11.309 21.102 21.102 0 0 0-5.713-9.862ZM135.96 21.57a32.581 32.581 0 0 1-6.157 8.27l-2.3 2.284a33.03 33.03 0 0 1-8.352 6.132 19.582 19.582 0 0 1-8.247 2.348 7.344 7.344 0 0 1-3.243-.352 7.29 7.29 0 0 1-2.764-1.72 7.226 7.226 0 0 1-1.733-2.743 7.185 7.185 0 0 1-.354-3.219c.166-2.87.974-5.666 2.365-8.186a32.865 32.865 0 0 1 6.179-8.289l2.301-2.283a32.81 32.81 0 0 1 8.326-6.114 19.64 19.64 0 0 1 8.222-2.325 7.343 7.343 0 0 1 3.244.351 7.303 7.303 0 0 1 2.766 1.72 7.242 7.242 0 0 1 1.733 2.745 7.19 7.19 0 0 1 .353 3.22 19.274 19.274 0 0 1-2.34 8.156l.001.005ZM191.936 12.545h29.601l-31.71 28.382v2.958h43.449V33.417h-30.903l31.626-28.311V2.073h-42.064l.001 10.472ZM40.996 2.018v35.204L10.546 2.018H-.001v41.867h3.117v-35.2l30.45 35.203h10.547V2.022h-3.117v-.004ZM186.814 12.096a19.448 19.448 0 0 0-7.682-7.418 22.992 22.992 0 0 0-11.121-2.66h-20.128v41.867h20.128a24.38 24.38 0 0 0 11.211-2.484 18.064 18.064 0 0 0 7.622-7.238 22.05 22.05 0 0 0 2.739-11.216 21.14 21.14 0 0 0-2.769-10.851Zm-1.568 16.51a19.54 19.54 0 0 1-7.47 4.131 33.04 33.04 0 0 1-10.245 1.523h-3.255a33.293 33.293 0 0 1-10.274-1.523A25.586 25.586 0 0 1 151 31.555v-17.26a25.983 25.983 0 0 1 3.002-1.183 33.29 33.29 0 0 1 10.274-1.522h3.255c3.475-.034 6.933.48 10.245 1.522a19.593 19.593 0 0 1 7.47 4.133 7.242 7.242 0 0 1 2.043 2.525 7.197 7.197 0 0 1 0 6.312 7.241 7.241 0 0 1-2.043 2.525v-.002Z"/></g><defs><clipPath id="a"><path fill="#fff" d="M0 0h234v46H0z"/></clipPath></defs></svg>