<svg width="115" height="129" viewBox="0 0 115 129" fill="none" xmlns="http://www.w3.org/2000/svg">
<g clip-path="url(#clip0_1_111)">
<path d="M94.9764 63.6138C90.9606 69.5578 86.5536 75.2281 81.7847 80.5873C76.9939 86.0243 71.8537 91.1434 66.3968 95.9121C61.8223 99.9515 56.9222 103.607 51.7465 106.841C49.644 108.141 47.4637 109.312 45.2179 110.345C43.383 111.197 41.4724 111.875 39.5112 112.371C37.9986 112.767 36.432 112.916 34.8719 112.812C33.6723 112.736 32.5178 112.327 31.5379 111.631C31.315 111.464 31.1061 111.279 30.9134 111.077L12.1617 95.9176L27.8555 78.3104L36.3564 84.8595C37.7858 82.3258 39.404 79.7092 41.2047 77.0242C45.2208 71.0788 49.6282 65.407 54.3976 60.0464C59.1887 54.6096 64.3292 49.4906 69.7863 44.722C70.9206 43.7358 72.0477 42.7865 73.1675 41.8741L70.3071 41.4244L85.3973 14.2118L104.159 28.6827C104.327 28.7814 104.49 28.8895 104.646 29.0063C105.558 29.7099 106.233 30.6755 106.58 31.7735C107.006 33.1549 107.165 34.6048 107.049 36.0458C106.916 37.9277 106.58 39.7898 106.048 41.6C105.397 43.8505 104.593 46.0539 103.641 48.1948C103.051 49.5441 102.397 50.9241 101.677 52.3347C99.6677 56.2231 97.4304 59.9894 94.9764 63.6138Z" fill="#BBD4D0" stroke="#4F2479" stroke-width="1.99998"/>
<path d="M59.1969 64.5158C54.1802 70.0824 49.0193 75.2142 43.8575 79.7686C38.8802 84.1602 34.1141 87.8308 29.6916 90.6786C25.3076 93.5015 21.4967 95.3661 18.3648 96.2205C16.8345 96.638 15.4967 96.8001 14.3883 96.7023C13.339 96.6098 12.4934 96.2804 11.875 95.7234C11.2561 95.166 10.8402 94.3583 10.6389 93.323C10.4264 92.2295 10.4487 90.8803 10.7053 89.3128C11.2304 86.1051 12.6906 82.116 15.0453 77.4564C17.4207 72.7559 20.5794 67.628 24.4336 62.2153C28.4311 56.6013 33.003 50.929 38.0224 45.356L38.0653 45.3084C43.0819 39.7418 48.2428 34.61 53.4047 30.0556C58.3819 25.664 63.148 21.9934 67.5705 19.1457C71.9545 16.3227 75.7654 14.4582 78.8973 13.6038C80.4276 13.1863 81.7654 13.0242 82.8737 13.122C83.9231 13.2145 84.7687 13.5439 85.3871 14.1009C86.006 14.6583 86.4218 15.4659 86.6231 16.5013C86.8357 17.5948 86.8134 18.944 86.5568 20.5114C86.0317 23.7192 84.5715 27.7083 82.2168 32.3678C79.8414 37.0684 76.6827 42.1962 72.8285 47.609C68.831 53.223 64.2591 58.8953 59.2397 64.4683L59.1969 64.5158Z" fill="#BBD4D0"/>
<path d="M38.6998 45.9211L38.6782 45.9451C33.6813 51.4933 29.1306 57.1391 25.1526 62.7257C21.324 68.1025 18.1884 73.1921 15.833 77.8532C13.5515 82.3678 12.0795 86.3794 11.5761 89.4543C11.263 91.3674 11.1631 93.8941 12.4659 95.0675C13.767 96.2395 16.2657 95.8784 18.1327 95.3691C21.1346 94.5501 24.9664 92.6716 29.2139 89.9366C33.5992 87.1128 38.3295 83.4691 43.2736 79.1068C48.4103 74.5746 53.5471 69.4667 58.5413 63.925L58.5624 63.9016L58.584 63.8776C63.581 58.3295 68.1316 52.6837 72.1097 47.097C75.9383 41.7202 79.0738 36.6306 81.4293 31.9696C83.7108 27.455 85.1827 23.4433 85.6861 20.3684C85.9993 18.4554 86.0991 15.9286 84.7964 14.7552C83.4952 13.5833 80.9966 13.9444 79.1296 14.4537C76.1276 15.2726 72.2958 17.1512 68.0484 19.8862C63.6631 22.71 58.9327 26.3536 53.9886 30.7159C48.8519 35.2481 43.7151 40.3561 38.7209 45.8977L38.6998 45.9211ZM37.4098 44.7175C58.0238 21.8436 79.7611 7.84499 85.9781 13.4448C92.1992 19.0483 80.5217 42.1561 59.8956 65.0575C59.8817 65.0728 59.8664 65.0899 59.8525 65.1053C39.2384 87.9791 17.5012 101.978 11.2842 96.378C5.063 90.7744 16.7405 67.6666 37.3667 44.7652C37.3805 44.7499 37.3959 44.7328 37.4098 44.7175Z" fill="#4F2479"/>
</g>
<defs>
<clipPath id="clip0_1_111">
<rect width="115" height="129" fill="white"/>
</clipPath>
</defs>
</svg>
