<svg width="115" height="91" viewBox="0 0 115 91" fill="none" xmlns="http://www.w3.org/2000/svg">
<g clip-path="url(#clip0_1_85)">
<path d="M64.6651 80.3792C58.5211 77.8974 52.5493 75.0097 46.7894 71.7352C40.9551 68.4558 35.3409 64.7999 29.9826 60.7908C25.4526 57.4388 21.2074 53.7187 17.2902 49.6686C15.7117 48.0211 14.2359 46.2782 12.8713 44.4499C11.7493 42.9579 10.7698 41.3641 9.94565 39.6894C9.29583 38.4002 8.85929 37.0144 8.65299 35.5857C8.4925 34.4873 8.64171 33.366 9.08387 32.3477C9.10775 32.2975 9.13241 32.2474 9.15788 32.1976L17.9923 13.0533L37.2861 23.1635L30.9967 30.614C34.8084 31.6679 38.5563 32.9398 42.2218 34.4235C48.3656 36.9056 54.3374 39.7933 60.0974 43.0676C65.9329 46.3468 71.5482 50.0027 76.9076 54.0119C78.0304 54.8565 79.1175 55.7015 80.1688 56.5468L79.8479 52.9247L107.618 60.3507L97.8827 82.3055L97.8748 82.3037C97.853 82.3544 97.8307 82.4049 97.8079 82.4554C97.3461 83.4138 96.6018 84.2081 95.6749 84.7316C94.5071 85.3814 93.2262 85.8033 91.9006 85.9747C90.174 86.2163 88.4264 86.2711 86.688 86.1381C84.5295 85.9838 82.3841 85.6819 80.2669 85.2346C79.7393 85.1263 79.2054 85.0097 78.6649 84.885C73.8904 83.7408 69.2102 82.2345 64.6651 80.3792Z" fill="#BBD4D0" stroke="#4F2479" stroke-width="1.99975"/>
<path d="M56.6526 48.1479C50.5409 44.9017 44.7868 41.4289 39.5503 37.8261C34.501 34.3521 30.1453 30.9058 26.6043 27.5829C23.094 24.2889 20.5712 21.2936 19.1058 18.6802C18.3898 17.4033 17.9457 16.2415 17.7859 15.2271C17.6347 14.2666 17.7412 13.4356 18.1026 12.7571C18.4643 12.0781 19.0957 11.5249 19.9792 11.1128C20.9123 10.6776 22.1272 10.3955 23.59 10.2743C26.5838 10.0264 30.4869 10.4409 35.191 11.5063C39.9365 12.5812 45.24 14.2618 50.9543 16.5014C56.881 18.8244 62.9883 21.6486 69.1064 24.8958L69.1587 24.9236C75.2704 28.1698 81.0245 31.6425 86.261 35.2454C91.3103 38.7194 95.666 42.1657 99.207 45.4886C102.717 48.7825 105.24 51.7778 106.705 54.3912C107.421 55.6681 107.866 56.8299 108.025 57.8443C108.177 58.8048 108.07 59.6358 107.709 60.3143C107.347 60.9933 106.716 61.5465 105.832 61.9586C104.899 62.3938 103.684 62.6759 102.221 62.7971C99.2275 63.045 95.3243 62.6305 90.6202 61.5651C85.8748 60.4903 80.5712 58.8097 74.8569 56.57C68.9302 54.2471 62.823 51.4228 56.7048 48.1756L56.6526 48.1479Z" fill="#BBD4D0"/>
<path d="M68.7501 25.6291L68.7238 25.6151C62.633 22.3825 56.5543 19.5713 50.6564 17.2597C44.9802 15.035 39.7161 13.3665 35.0105 12.3007C30.4528 11.2684 26.5268 10.8484 23.6571 11.0861C21.8717 11.2339 19.5836 11.7102 18.8222 13.1396C18.0618 14.5672 18.9434 16.7239 19.817 18.2818C21.2216 20.7868 23.7616 23.7977 27.1625 26.989C30.6737 30.2839 34.9971 33.7042 40.0128 37.1551C45.2238 40.7403 50.951 44.1968 57.0354 47.4285L57.0611 47.4421L57.0875 47.4561C63.1782 50.6888 69.257 53.4999 75.1548 55.8115C80.8311 58.0363 86.0951 59.7047 90.8007 60.7705C95.3585 61.8028 99.2844 62.2228 102.154 61.9852C103.94 61.8373 106.228 61.361 106.989 59.9316C107.749 58.5041 106.868 56.3473 105.994 54.7894C104.59 52.2845 102.05 49.2736 98.6488 46.0823C95.1375 42.7874 90.8141 39.367 85.7985 35.9162C80.5875 32.3309 74.8602 28.8744 68.7758 25.6428L68.7501 25.6291ZM69.5415 24.2043C94.6554 37.5433 112.061 53.8753 108.428 60.6965C104.792 67.5222 81.4635 62.2384 56.3222 48.8948C56.3054 48.8858 56.2866 48.8759 56.2698 48.8669C31.1558 35.5279 13.7498 19.196 17.3832 12.3748C21.0192 5.54898 44.3477 10.8328 69.489 24.1765C69.5059 24.1854 69.5246 24.1954 69.5415 24.2043Z" fill="#4F2479"/>
</g>
<defs>
<clipPath id="clip0_1_85">
<rect width="115" height="91" fill="white"/>
</clipPath>
</defs>
</svg>
