<svg width="128" height="101" viewBox="0 0 128 101" fill="none" xmlns="http://www.w3.org/2000/svg">
<g clip-path="url(#clip0_1_41)">
<path d="M71.9733 89.2134C65.135 86.4591 58.4884 83.2542 52.0777 79.62C45.584 75.9803 39.3355 71.9228 33.3718 67.4732C28.33 63.7528 23.6051 59.624 19.2454 55.1288C17.4886 53.3002 15.8461 51.3658 14.3274 49.3365C13.0786 47.6805 11.9885 45.9115 11.0713 44.0528C10.3481 42.6218 9.86227 41.0836 9.63274 39.4979C9.45416 38.2788 9.6203 37.0341 10.1125 35.9038C10.1391 35.8481 10.1665 35.7926 10.1949 35.7373L20.0288 14.4875L41.5029 25.7083L34.5022 33.9784C38.7446 35.1479 42.9161 36.5595 46.9958 38.2061C53.8339 40.9608 60.4805 44.1657 66.8914 47.7996C73.3863 51.4391 79.6361 55.4966 85.601 59.9463C86.8507 60.8837 88.0606 61.8216 89.2307 62.7598L88.8737 58.7395L119.782 66.9805L108.945 91.3497L108.937 91.3477C108.912 91.404 108.887 91.4601 108.862 91.5161C108.348 92.5799 107.52 93.4616 106.488 94.0427C105.188 94.764 103.762 95.2323 102.287 95.4227C100.365 95.6909 98.4199 95.7518 96.4851 95.6043C94.0826 95.4332 91.6947 95.0982 89.3382 94.6018C88.7511 94.4816 88.1567 94.3523 87.5552 94.2139C82.2411 92.9441 77.0321 91.2725 71.9733 89.2134Z" fill="#F6A0A9" stroke="#16774A" stroke-width="1.99975"/>
<path d="M63.0467 53.4534C56.2454 49.8525 49.8425 45.9996 44.0159 42.0019C38.3975 38.1471 33.5514 34.3225 29.612 30.6344C25.7068 26.9784 22.9006 23.6534 21.2713 20.7517C20.4753 19.334 19.9818 18.0439 19.8047 16.9173C19.6371 15.8506 19.7563 14.9275 20.1592 14.1736C20.5624 13.4191 21.2657 12.8041 22.2496 12.3457C23.2886 11.8616 24.6413 11.5473 26.2699 11.4116C29.6028 11.1339 33.9475 11.5913 39.1834 12.7711C44.4654 13.9613 50.3681 15.8239 56.7277 18.3071C63.3237 20.8827 70.1203 24.015 76.9287 27.617L76.9868 27.6478C83.7881 31.2487 90.191 35.1016 96.0176 39.0993C101.636 42.9541 106.482 46.7787 110.421 50.4668C114.327 54.1227 117.133 57.4478 118.762 60.3494C119.558 61.7672 120.052 63.0573 120.229 64.1839C120.396 65.2506 120.277 66.1737 119.874 66.9276C119.471 67.6821 118.768 68.2971 117.784 68.7555C116.745 69.2396 115.392 69.5538 113.764 69.6896C110.431 69.9673 106.086 69.5099 100.85 68.3301C95.568 67.1399 89.6653 65.2773 83.3057 62.7941C76.7097 60.2185 69.9131 57.0862 63.1048 53.4842L63.0467 53.4534Z" fill="#F6A0A9"/>
<path d="M76.5315 28.4321L76.5022 28.4166C69.7243 24.8307 62.9595 21.713 56.3957 19.15C50.0785 16.6834 44.2197 14.8343 38.9822 13.6541C33.9092 12.511 29.5391 12.0475 26.3443 12.3138C24.3566 12.4794 21.8091 13.0102 20.9604 14.5984C20.1127 16.1846 21.0926 18.5794 22.0638 20.3091C23.6255 23.0903 26.4508 26.4326 30.2342 29.9746C34.1404 33.6316 38.9507 37.4273 44.5315 41.2563C50.3297 45.2345 56.7027 49.0692 63.4735 52.654L63.5021 52.6691L63.5314 52.6846C70.3092 56.2705 77.074 59.3882 83.6378 61.9512C89.955 64.4178 95.8138 66.2669 101.051 67.4471C106.124 68.5902 110.494 69.0536 113.689 68.7874C115.677 68.6218 118.224 68.091 119.073 66.5028C119.921 64.9166 118.941 62.5217 117.97 60.7921C116.408 58.0108 113.583 54.6686 109.799 51.1266C105.893 47.4696 101.083 43.6739 95.502 39.8449C89.7038 35.8667 83.3308 32.032 76.5601 28.4472L76.5315 28.4321ZM77.4135 26.8489C105.36 41.6454 124.725 59.772 120.674 67.3512C116.622 74.9355 90.6558 69.0847 62.6784 54.2832C62.6596 54.2732 62.6388 54.2622 62.62 54.2523C34.673 39.4558 15.309 21.3292 19.3591 13.75C23.412 6.16568 49.3777 12.0164 77.3551 26.818C77.3739 26.828 77.3947 26.839 77.4135 26.8489Z" fill="#16774A"/>
</g>
<defs>
<clipPath id="clip0_1_41">
<rect width="128" height="101" fill="white"/>
</clipPath>
</defs>
</svg>
