<svg width="128" height="113" viewBox="0 0 128 113" fill="none" xmlns="http://www.w3.org/2000/svg">
<g clip-path="url(#clip0_1_47)">
<path d="M92.5446 72.8043C86.0401 75.7016 79.3501 78.1621 72.519 80.1695C65.6285 82.2309 58.6112 83.8404 51.5115 84.9879C45.5383 85.9856 39.4929 86.4878 33.4371 86.4895C30.9849 86.4787 28.5356 86.3173 26.1032 86.0059C24.1118 85.7586 22.148 85.3249 20.2375 84.7106C18.7564 84.2481 17.3598 83.5486 16.102 82.6392C15.1318 81.9429 14.3748 80.9897 13.916 79.8864C13.8938 79.8294 13.873 79.7719 13.8534 79.7138L5.63751 58.5649L27.8611 51.1997L28.9272 61.6384C32.5868 59.4779 36.3675 57.5298 40.2505 55.8037C46.755 52.9069 53.4448 50.4465 60.2756 48.4388C67.1664 46.3772 74.1842 44.7674 81.2842 43.6197C82.776 43.3822 84.24 43.1721 85.6763 42.9894L82.6352 40.5296L109.102 24.6002L118.818 48.5481L118.81 48.553C118.834 48.6079 118.856 48.6633 118.878 48.7192C119.274 49.7927 119.333 50.9619 119.046 52.0699C118.678 53.4585 118.049 54.7645 117.194 55.9181C116.093 57.4343 114.831 58.8273 113.431 60.0726C111.701 61.6272 109.866 63.0613 107.94 64.3648C107.463 64.6921 106.974 65.0183 106.474 65.3434C102.027 68.1811 97.3703 70.6753 92.5446 72.8043Z" fill="#F6A0A9" stroke="#16774A" stroke-width="1.99975"/>
<path d="M61.6909 55.0732C54.6118 57.3759 47.6243 59.2322 40.9223 60.5907C34.4576 61.9011 28.5318 62.6951 23.3095 62.9507C18.1229 63.2044 13.9043 62.9149 10.7709 62.0901C9.22759 61.6839 7.97764 61.1498 7.05576 60.5025C6.16633 59.878 5.57961 59.1427 5.31189 58.317C5.04396 57.4906 5.08764 56.5493 5.44173 55.5191C5.80871 54.4514 6.50792 53.2818 7.51997 52.0428C9.5746 49.5276 12.8225 46.8061 17.1734 43.9539C21.5543 41.0821 26.8208 38.232 32.8265 35.4827C39.0531 32.6323 45.8025 30.0173 52.8871 27.7104L52.9476 27.6907C60.0267 25.388 67.0142 23.5317 73.7162 22.1732C80.1809 20.8628 86.1067 20.0688 91.329 19.8133C96.5155 19.5595 100.734 19.849 103.868 20.6738C105.411 21.08 106.661 21.6142 107.583 22.2614C108.472 22.8859 109.059 23.6212 109.327 24.4469C109.595 25.2733 109.551 26.2146 109.197 27.2448C108.83 28.3125 108.131 29.4821 107.118 30.7211C105.064 33.2364 101.816 35.9579 97.4651 38.81C93.0841 41.6818 87.8177 44.532 81.812 47.2812C75.5854 50.1316 68.836 52.7466 61.7514 55.0535L61.6909 55.0732Z" fill="#F6A0A9"/>
<path d="M53.131 28.3577L53.1006 28.3676C46.0409 30.6664 39.3163 33.2717 33.1136 36.1112C27.1393 38.8461 21.9035 41.6793 17.5515 44.5321C13.3201 47.3059 10.036 50.0544 8.05433 52.4803C6.77772 54.0432 5.37958 56.2874 5.96846 58.1037C6.55672 59.918 9.00018 60.9095 10.9464 61.4218C13.9684 62.2173 18.2318 62.5073 23.2758 62.2604C28.4635 62.0066 34.3545 61.217 40.7853 59.9134C47.4615 58.5602 54.4234 56.7106 61.4776 54.416L61.5075 54.4062L61.5379 54.3963C68.5976 52.0976 75.3222 49.4923 81.5249 46.6528C87.4991 43.9179 92.7349 41.0847 97.0869 38.2319C101.318 35.4581 104.602 32.7096 106.584 30.2836C107.861 28.7208 109.259 26.4766 108.67 24.6603C108.082 22.8459 105.638 21.8544 103.692 21.3422C100.67 20.5467 96.4066 20.2567 91.3627 20.5035C86.175 20.7574 80.2839 21.547 73.8531 22.8505C67.1769 24.2038 60.215 26.0534 53.1609 28.348L53.131 28.3577ZM52.7343 27.0335C81.7957 17.5804 107.419 16.3254 109.983 24.2336C112.549 32.1471 91.0504 46.2399 61.9649 55.7107C61.9454 55.7171 61.9237 55.7241 61.9042 55.7305C32.8427 65.1836 7.21931 66.4386 4.6553 58.5304C2.08956 50.6169 23.5881 36.5241 52.6736 27.0533C52.6931 27.0469 52.7148 27.0399 52.7343 27.0335Z" fill="#16774A"/>
</g>
<defs>
<clipPath id="clip0_1_47">
<rect width="128" height="113" fill="white"/>
</clipPath>
</defs>
</svg>
