<svg width="406" height="85" viewBox="0 0 406 85" fill="none" xmlns="http://www.w3.org/2000/svg">
<path d="M36.1938 43.4444C34.453 45.4995 32.1518 46.9477 29.2902 47.7889C26.4512 48.6113 23.2064 48.8516 19.5556 48.51C15.8634 48.1645 12.6667 46.997 9.96528 45.0074C7.26584 42.9972 5.27736 40.3211 3.99985 36.9792C2.74308 33.6392 2.29098 29.8619 2.64354 25.6473L3.01333 21.6958C3.65196 14.8714 5.73376 9.73054 9.25874 6.2731C12.8045 2.81761 17.4606 1.35967 23.227 1.89931C27.9564 2.34188 31.6491 3.91153 34.3052 6.60824C36.9633 9.28421 38.4061 12.8718 38.6338 17.3709L32.6599 16.8118C32.1007 10.7124 28.8135 7.38117 22.7981 6.81824C18.7948 6.4436 15.6239 7.56973 13.2857 10.1966C10.9701 12.8047 9.55251 16.7732 9.0329 22.1022L8.68641 25.8047C8.21083 30.8867 8.9939 35.0402 11.0356 38.2653C13.0793 41.4697 16.082 43.2572 20.0439 43.628C22.2841 43.8376 24.2676 43.7722 25.9943 43.4316C27.7211 43.091 29.1895 42.381 30.3995 41.3015L31.3516 31.1272L20.8662 30.146L21.3204 25.2922L37.7486 26.8295L36.1938 43.4444ZM73.1917 31.7784L53.5587 29.9412L52.0563 45.996L74.8629 48.1303L74.4057 53.0152L45.6252 50.3219L49.8647 5.01982L78.334 7.68401L77.874 12.6L55.3785 10.4949L54.0158 25.0563L73.6488 26.8935L73.1917 31.7784ZM117.544 16.3124L102.983 14.9498L99.2036 55.3358L93.2609 54.7797L97.0402 14.3936L82.51 13.0339L82.97 8.11786L118.004 11.3964L117.544 16.3124ZM141.457 59.2899L135.483 58.7308L139.722 13.4288L145.696 13.9878L141.457 59.2899ZM187.225 63.573L181.22 63.011L161.681 25.9668L158.414 60.8768L152.409 60.3148L156.648 15.0127L162.653 15.5747L182.24 52.7803L185.522 17.7148L191.465 18.2709L187.225 63.573ZM213.073 45.622C208.087 43.6698 204.522 41.5158 202.378 39.1599C200.257 36.7853 199.344 34.0215 199.639 30.8686C199.973 27.3009 201.669 24.4884 204.729 22.4311C207.81 20.3551 211.633 19.5306 216.196 19.9576C219.308 20.2488 222.021 21.1095 224.335 22.5396C226.67 23.9718 228.402 25.8078 229.532 28.0478C230.682 30.2897 231.14 32.6656 230.905 35.1755L224.9 34.6136C225.156 31.8755 224.486 29.6471 222.889 27.9284C221.294 26.1889 218.91 25.1706 215.736 24.8736C212.791 24.598 210.427 25.0359 208.646 26.1874C206.887 27.3201 205.899 29.0377 205.684 31.3401C205.511 33.1862 206.142 34.8251 207.578 36.2567C209.036 37.6696 211.593 39.0806 215.248 40.4898C218.924 41.901 221.76 43.3486 223.755 44.8326C225.773 46.2979 227.211 47.9285 228.068 49.7245C228.946 51.5225 229.278 53.5727 229.062 55.8751C228.718 59.5466 227.012 62.3581 223.941 64.3097C220.873 66.2405 216.943 66.9818 212.152 66.5334C209.04 66.2422 206.192 65.3793 203.606 63.9446C201.022 62.4892 199.09 60.6554 197.812 58.4433C196.554 56.2332 196.048 53.8109 196.295 51.1766L202.3 51.7386C202.044 54.4766 202.847 56.7383 204.709 58.5238C206.595 60.2905 209.228 61.332 212.609 61.6484C215.762 61.9435 218.238 61.5266 220.039 60.3978C221.839 59.269 222.844 57.5948 223.051 55.3754C223.259 53.1559 222.641 51.3718 221.198 50.0232C219.757 48.6538 217.048 47.1867 213.073 45.622ZM243.303 50.9305L241.644 68.6655L235.67 68.1065L239.909 22.8044L256.618 24.368C261.575 24.8319 265.336 26.4602 267.899 29.2529C270.483 32.0475 271.58 35.5294 271.19 39.6987C270.779 44.0962 269.082 47.3585 266.1 49.4858C263.14 51.5942 259.099 52.4087 253.976 51.9292L243.303 50.9305ZM243.761 46.0456L254.495 47.0501C257.689 47.3491 260.207 46.8314 262.047 45.4971C263.89 44.142 264.944 42.0436 265.21 39.2019C265.463 36.5053 264.814 34.2685 263.265 32.4914C261.715 30.7143 259.46 29.6559 256.5 29.316L245.423 28.2795L243.761 46.0456ZM282.279 72.4682L276.305 71.9092L280.544 26.6071L286.518 27.1661L282.279 72.4682ZM311.561 56.7218L300.92 55.726L299.205 74.0522L293.2 73.4902L297.439 28.1881L312.436 29.5916C317.539 30.0691 321.351 31.5975 323.871 34.177C326.413 36.7583 327.476 40.2685 327.06 44.7074C326.796 47.5284 325.799 49.9146 324.068 51.866C322.357 53.8193 320.095 55.1874 317.281 55.9702L326.122 76.1945L326.087 76.5679L319.678 75.968L311.561 56.7218ZM301.377 50.8411L310.556 51.7C313.522 51.9776 315.948 51.4304 317.834 50.0585C319.741 48.6886 320.814 46.7175 321.055 44.1454C321.317 41.3452 320.678 39.1197 319.138 37.469C317.618 35.8202 315.283 34.8379 312.132 34.5221L302.984 33.6661L301.377 50.8411ZM360.063 58.6242L340.43 56.7869L338.928 72.8418L361.734 74.9761L361.277 79.861L332.497 77.1677L336.736 31.8656L365.206 34.5298L364.746 39.4458L342.25 37.3407L340.887 51.902L360.52 53.7393L360.063 58.6242ZM368.714 80.5569L372.953 35.2548L385.741 36.4515C389.682 36.8203 393.085 38.0176 395.951 40.0434C398.816 42.0692 400.918 44.7663 402.255 48.1348C403.614 51.5052 404.109 55.276 403.739 59.4473L403.468 62.3409C403.068 66.6139 401.888 70.2803 399.928 73.3401C397.989 76.4019 395.403 78.6499 392.172 80.0843C388.962 81.5206 385.322 82.0693 381.253 81.7303L368.714 80.5569ZM378.467 40.7299L375.145 76.231L381.43 76.8192C386.035 77.2501 389.747 76.1537 392.566 73.53C395.406 70.9082 397.073 66.9526 397.568 61.6632L397.816 59.0185C398.297 53.8743 397.457 49.7678 395.296 46.6989C393.158 43.6112 389.871 41.839 385.436 41.3821L378.467 40.7299Z" fill="#E1FD2C"/>
</svg>
